# xmcd
#
# Track frame offsets:
#	150
#	30083
#	70423
#	98399
#	120945
#	138934
#	163285
#	189340
#	198533
#	221783
#	261553
#	282646
#	309750
#
# Disc length: 4428 seconds
#
# Revision: 1
# Processed by: cddbd v1.5.2PL0 Copyright (c) Steve Scherf et al.
# Submitted via: audiograbber 1.83.01
#
DISCID=b9114a0d
DTITLE=Grateful Dead - 70-12-28A Legion Stadium, El-Monte CA
DYEAR=1900
DGENRE=
TTITLE0=Cold Rain and Snow
TTITLE1=Truckin'
TTITLE2=It Hurts Me Too
TTITLE3=Me and My Uncle
TTITLE4=Beat It On Down The Line
TTITLE5=China Cat Sunflower
TTITLE6=I Know You Rider
TTITLE7=Cryptical Envelopment
TTITLE8=Drums
TTITLE9=The Other One
TTITLE10=Cryptical Envelopment
TTITLE11=Sugar Magnolia
TTITLE12=Casey Jones
EXTD=
EXTT0=
EXTT1=
EXTT2=
EXTT3=
EXTT4=
EXTT5=
EXTT6=
EXTT7=
EXTT8=
EXTT9=
EXTT10=
EXTT11=
EXTT12=
PLAYORDER=
